<svg id="plus" xmlns="http://www.w3.org/2000/svg" xmlns:xlink="http://www.w3.org/1999/xlink" width="14.435" height="14.435" viewBox="0 0 14.435 14.435">
  <defs>
    <clipPath id="clip-path">
      <path id="_Icon_小olor" data-name=" Icon 小olor" d="M13.533,6.315H8.12V.9a.9.9,0,1,0-1.8,0V6.315H.9a.9.9,0,1,0,0,1.8H6.315v5.413a.9.9,0,1,0,1.8,0V8.12h5.413a.9.9,0,1,0,0-1.8" fill="#fff"/>
    </clipPath>
  </defs>
  <path id="_Icon_小olor-2" data-name=" Icon 小olor" d="M13.533,6.315H8.12V.9a.9.9,0,1,0-1.8,0V6.315H.9a.9.9,0,1,0,0,1.8H6.315v5.413a.9.9,0,1,0,1.8,0V8.12h5.413a.9.9,0,1,0,0-1.8" fill="#fff"/>
</svg>
