<svg xmlns="http://www.w3.org/2000/svg" width="133" height="23.735" viewBox="0 0 133 23.735">
  <g id="Group_961" data-name="Group 961" transform="translate(-178 -816)">
    <g id="Group_957" data-name="Group 957">
      <path id="path16" d="M17.328-181.645c.623-.077.884-.278.868-.995a14.377,14.377,0,0,0-.182-1.947,8.959,8.959,0,0,0-2.754-5.2,9.541,9.541,0,0,0-6.646-2.283,5.634,5.634,0,0,1-2.369-.494A5.734,5.734,0,0,1,4.3-194.028l-.88-1A1.741,1.741,0,0,0,.963-195.2,1.736,1.736,0,0,0,.8-192.745l.88,1a9.246,9.246,0,0,0,3.135,2.351,9.073,9.073,0,0,0,3.813.793,6.188,6.188,0,0,1,4.3,1.384,5.73,5.73,0,0,1,1.713,3.632c.2,1.583,1.21,2.114,2.685,1.934ZM2.41-185.871h0c1.476-.18,2.486.351,2.686,1.934a5.728,5.728,0,0,0,1.713,3.632,6.184,6.184,0,0,0,4.3,1.385,9.057,9.057,0,0,1,3.813.793,9.234,9.234,0,0,1,3.135,2.351l.88,1a1.736,1.736,0,0,1-.163,2.451,1.741,1.741,0,0,1-2.454-.163l-.88-1.005a5.742,5.742,0,0,0-1.95-1.465,5.624,5.624,0,0,0-2.368-.494,9.541,9.541,0,0,1-6.646-2.283,8.954,8.954,0,0,1-2.754-5.2,14.47,14.47,0,0,1-.182-1.947C1.527-185.594,1.787-185.8,2.41-185.871Zm6.524.254H10.8a.926.926,0,0,1,.923.923v1.871a.926.926,0,0,1-.923.923H8.934a.926.926,0,0,1-.923-.923v-1.871a.926.926,0,0,1,.923-.923" transform="translate(291.631 1011.626)" fill="#24292d" fill-rule="evenodd"/>
      <text id="Pagamento_por" data-name="Pagamento por" transform="translate(178 832)" fill="#24292d" font-size="14" font-family="MuseoSans-500, Museo Sans" font-weight="500" letter-spacing="0.022em"><tspan x="0" y="0">Pagamento por</tspan></text>
    </g>
  </g>
</svg>
